<?xml version="1.0" standalone="no"?>
<!DOCTYPE svg PUBLIC "-//W3C//DTD SVG 20010904//EN"
 "http://www.w3.org/TR/2001/REC-SVG-20010904/DTD/svg10.dtd">
<svg version="1.0" xmlns="http://www.w3.org/2000/svg"
 width="700.000000pt" height="700.000000pt" viewBox="0 0 700.000000 700.000000"
 preserveAspectRatio="xMidYMid meet">
<metadata>
Created by potrace 1.14, written by Peter Selinger 2001-2017
</metadata>
<g transform="translate(0.000000,700.000000) scale(0.100000,-0.100000)"
fill="#000000" stroke="none">
<path d="M870 5487 l0 -54 108 -6 c128 -7 222 -32 291 -77 106 -67 149 -149
171 -322 13 -105 14 -2956 0 -3080 -19 -186 -65 -270 -179 -327 -77 -39 -142
-51 -276 -51 l-115 0 0 -55 0 -55 710 0 710 0 0 55 0 55 -118 0 c-226 0 -363
65 -412 196 -39 106 -41 166 -38 1664 l3 1445 784 -1708 784 -1707 52 0 51 0
785 1711 784 1712 3 -1414 c3 -1446 0 -1570 -35 -1680 -22 -66 -89 -141 -156
-172 -75 -35 -143 -47 -272 -47 l-115 0 0 -55 0 -55 870 0 870 0 0 55 0 55
-116 0 c-153 0 -237 19 -317 73 -70 48 -97 92 -124 202 -16 64 -17 200 -20
1595 -2 953 0 1557 6 1612 15 137 37 202 87 257 77 85 187 121 375 121 l109 0
0 55 0 55 -581 -2 -582 -3 -726 -1593 c-469 -1028 -729 -1588 -734 -1580 -5 7
-338 724 -741 1593 l-733 1580 -581 3 -582 2 0 -53z"/>
</g>
</svg>
